<svg xmlns="http://www.w3.org/2000/svg" xmlns:xlink="http://www.w3.org/1999/xlink" width="500" zoomAndPan="magnify" viewBox="0 0 375 374.999991" height="500" preserveAspectRatio="xMidYMid meet" version="1.0"><defs><clipPath id="a30f4befb7"><path d="M 50.792969 38.09375 L 324.542969 38.09375 L 324.542969 336.59375 L 50.792969 336.59375 Z M 50.792969 38.09375 " clip-rule="nonzero"/></clipPath></defs><rect x="-37.5" width="450" fill="#ffffff" y="-37.499999" height="449.999989" fill-opacity="1"/><rect x="-37.5" width="450" fill="#000000" y="-37.499999" height="449.999989" fill-opacity="1"/><g clip-path="url(#a30f4befb7)"><path fill="#ffffff" d="M 321.671875 97.039062 L 277.199219 71.378906 C 278.035156 68.871094 278.597656 66.238281 278.597656 63.453125 C 278.597656 49.496094 267.238281 38.136719 253.28125 38.136719 C 239.324219 38.136719 227.964844 49.496094 227.964844 63.453125 C 227.964844 77.410156 239.324219 88.769531 253.28125 88.769531 C 260.8125 88.769531 267.511719 85.398438 272.152344 80.160156 L 314.078125 104.347656 L 314.078125 174.445312 L 253.320312 209.5 L 192.574219 174.453125 L 192.574219 101.4375 C 192.574219 99.625 191.609375 97.957031 190.039062 97.050781 L 124.21875 59.078125 C 122.648438 58.171875 120.730469 58.171875 119.15625 59.078125 L 53.335938 97.050781 C 51.769531 97.957031 50.804688 99.625 50.804688 101.4375 L 50.804688 177.382812 C 50.804688 179.191406 51.769531 180.863281 53.335938 181.769531 L 116.617188 218.277344 L 116.617188 293.824219 C 116.617188 295.632812 117.578125 297.304688 119.148438 298.210938 L 184.96875 336.183594 C 185.753906 336.636719 186.625 336.859375 187.5 336.859375 C 188.375 336.859375 189.25 336.636719 190.03125 336.183594 L 235.976562 309.65625 C 240.511719 313.929688 246.574219 316.59375 253.28125 316.59375 C 267.238281 316.59375 278.597656 305.238281 278.597656 291.28125 C 278.597656 277.320312 267.238281 265.964844 253.28125 265.964844 C 239.324219 265.964844 227.964844 277.320312 227.964844 291.28125 C 227.964844 294.867188 228.738281 298.269531 230.085938 301.363281 L 187.5 325.949219 L 126.742188 290.898438 L 126.742188 218.289062 L 187.515625 183.226562 L 250.789062 219.730469 C 251.574219 220.183594 252.445312 220.40625 253.320312 220.40625 C 254.195312 220.40625 255.066406 220.183594 255.851562 219.730469 L 321.671875 181.757812 C 323.242188 180.851562 324.203125 179.179688 324.203125 177.371094 L 324.203125 101.421875 C 324.203125 99.613281 323.242188 97.941406 321.671875 97.039062 Z M 253.28125 78.640625 C 244.90625 78.640625 238.089844 71.828125 238.089844 63.453125 C 238.089844 55.078125 244.90625 48.261719 253.28125 48.261719 C 261.65625 48.261719 268.46875 55.078125 268.46875 63.453125 C 268.46875 71.828125 261.65625 78.640625 253.28125 78.640625 Z M 253.28125 276.089844 C 261.65625 276.089844 268.46875 282.902344 268.46875 291.28125 C 268.46875 299.65625 261.65625 306.46875 253.28125 306.46875 C 244.90625 306.46875 238.089844 299.65625 238.089844 291.28125 C 238.089844 282.902344 244.90625 276.089844 253.28125 276.089844 Z M 182.445312 174.457031 L 121.6875 209.511719 L 60.929688 174.457031 L 60.929688 104.359375 L 121.6875 69.308594 L 182.445312 104.359375 Z M 182.445312 174.457031 " fill-opacity="1" fill-rule="nonzero"/></g></svg>